<svg id="visual" viewBox="0 0 900 300" width="900" height="300" xmlns="http://www.w3.org/2000/svg" xmlns:xlink="http://www.w3.org/1999/xlink" version="1.1"><rect x="0" y="0" width="900" height="300" fill="#253529"></rect><path d="M0 132L18.8 129.5C37.7 127 75.3 122 112.8 123.5C150.3 125 187.7 133 225.2 135.2C262.7 137.3 300.3 133.7 337.8 128.5C375.3 123.3 412.7 116.7 450.2 114.2C487.7 111.7 525.3 113.3 562.8 112.2C600.3 111 637.7 107 675.2 110.2C712.7 113.3 750.3 123.7 787.8 128.7C825.3 133.7 862.7 133.3 881.3 133.2L900 133L900 0L881.3 0C862.7 0 825.3 0 787.8 0C750.3 0 712.7 0 675.2 0C637.7 0 600.3 0 562.8 0C525.3 0 487.7 0 450.2 0C412.7 0 375.3 0 337.8 0C300.3 0 262.7 0 225.2 0C187.7 0 150.3 0 112.8 0C75.3 0 37.7 0 18.8 0L0 0Z" fill="#7cfc00"></path><path d="M0 102L18.8 101C37.7 100 75.3 98 112.8 98.2C150.3 98.3 187.7 100.7 225.2 103.5C262.7 106.3 300.3 109.7 337.8 108.3C375.3 107 412.7 101 450.2 98.3C487.7 95.7 525.3 96.3 562.8 100.8C600.3 105.3 637.7 113.7 675.2 112.7C712.7 111.7 750.3 101.3 787.8 96.5C825.3 91.7 862.7 92.3 881.3 92.7L900 93L900 0L881.3 0C862.7 0 825.3 0 787.8 0C750.3 0 712.7 0 675.2 0C637.7 0 600.3 0 562.8 0C525.3 0 487.7 0 450.2 0C412.7 0 375.3 0 337.8 0C300.3 0 262.7 0 225.2 0C187.7 0 150.3 0 112.8 0C75.3 0 37.7 0 18.8 0L0 0Z" fill="#00f0c2"></path><path d="M0 97L18.8 94.2C37.7 91.3 75.3 85.7 112.8 83.7C150.3 81.7 187.7 83.3 225.2 85.2C262.7 87 300.3 89 337.8 89C375.3 89 412.7 87 450.2 83.2C487.7 79.3 525.3 73.7 562.8 76.8C600.3 80 637.7 92 675.2 95.8C712.7 99.7 750.3 95.3 787.8 95.2C825.3 95 862.7 99 881.3 101L900 103L900 0L881.3 0C862.7 0 825.3 0 787.8 0C750.3 0 712.7 0 675.2 0C637.7 0 600.3 0 562.8 0C525.3 0 487.7 0 450.2 0C412.7 0 375.3 0 337.8 0C300.3 0 262.7 0 225.2 0C187.7 0 150.3 0 112.8 0C75.3 0 37.7 0 18.8 0L0 0Z" fill="#00d0ff"></path><path d="M0 75L18.8 74.2C37.7 73.3 75.3 71.7 112.8 67.7C150.3 63.7 187.7 57.3 225.2 55.5C262.7 53.7 300.3 56.3 337.8 56.3C375.3 56.3 412.7 53.7 450.2 51.8C487.7 50 525.3 49 562.8 50.7C600.3 52.3 637.7 56.7 675.2 56.7C712.7 56.7 750.3 52.3 787.8 54.3C825.3 56.3 862.7 64.7 881.3 68.8L900 73L900 0L881.3 0C862.7 0 825.3 0 787.8 0C750.3 0 712.7 0 675.2 0C637.7 0 600.3 0 562.8 0C525.3 0 487.7 0 450.2 0C412.7 0 375.3 0 337.8 0C300.3 0 262.7 0 225.2 0C187.7 0 150.3 0 112.8 0C75.3 0 37.7 0 18.8 0L0 0Z" fill="#00a5ff"></path><path d="M0 30L18.8 33.7C37.7 37.3 75.3 44.7 112.8 44.7C150.3 44.7 187.7 37.3 225.2 34.7C262.7 32 300.3 34 337.8 35.8C375.3 37.7 412.7 39.3 450.2 42.8C487.7 46.3 525.3 51.7 562.8 53.5C600.3 55.3 637.7 53.7 675.2 51.3C712.7 49 750.3 46 787.8 46.2C825.3 46.3 862.7 49.7 881.3 51.3L900 53L900 0L881.3 0C862.7 0 825.3 0 787.8 0C750.3 0 712.7 0 675.2 0C637.7 0 600.3 0 562.8 0C525.3 0 487.7 0 450.2 0C412.7 0 375.3 0 337.8 0C300.3 0 262.7 0 225.2 0C187.7 0 150.3 0 112.8 0C75.3 0 37.7 0 18.8 0L0 0Z" fill="#0071ff"></path><path d="M0 16L18.8 17.2C37.7 18.3 75.3 20.7 112.8 22.3C150.3 24 187.7 25 225.2 24.3C262.7 23.7 300.3 21.3 337.8 20C375.3 18.7 412.7 18.3 450.2 18.5C487.7 18.7 525.3 19.3 562.8 21.7C600.3 24 637.7 28 675.2 28C712.7 28 750.3 24 787.8 22.7C825.3 21.3 862.7 22.7 881.3 23.3L900 24L900 0L881.3 0C862.7 0 825.3 0 787.8 0C750.3 0 712.7 0 675.2 0C637.7 0 600.3 0 562.8 0C525.3 0 487.7 0 450.2 0C412.7 0 375.3 0 337.8 0C300.3 0 262.7 0 225.2 0C187.7 0 150.3 0 112.8 0C75.3 0 37.7 0 18.8 0L0 0Z" fill="#0000ff"></path></svg>