<svg id="visual" viewBox="0 0 900 600" width="900" height="600" xmlns="http://www.w3.org/2000/svg" xmlns:xlink="http://www.w3.org/1999/xlink" version="1.1"><rect x="0" y="0" width="900" height="600" fill="#333"></rect><path d="M0 214L18.8 217.7C37.7 221.3 75.3 228.7 112.8 217.8C150.3 207 187.7 178 225.2 177.3C262.7 176.7 300.3 204.3 337.8 209.5C375.3 214.7 412.7 197.3 450.2 194.8C487.7 192.3 525.3 204.7 562.8 214C600.3 223.3 637.7 229.7 675.2 234C712.7 238.3 750.3 240.7 787.8 234.2C825.3 227.7 862.7 212.3 881.3 204.7L900 197L900 0L881.3 0C862.7 0 825.3 0 787.8 0C750.3 0 712.7 0 675.2 0C637.7 0 600.3 0 562.8 0C525.3 0 487.7 0 450.2 0C412.7 0 375.3 0 337.8 0C300.3 0 262.7 0 225.2 0C187.7 0 150.3 0 112.8 0C75.3 0 37.7 0 18.8 0L0 0Z" fill="#daa520"></path><path d="M0 132L18.8 131.2C37.7 130.3 75.3 128.7 112.8 131.8C150.3 135 187.7 143 225.2 141.7C262.7 140.3 300.3 129.7 337.8 138C375.3 146.3 412.7 173.7 450.2 182.3C487.7 191 525.3 181 562.8 177.5C600.3 174 637.7 177 675.2 171.3C712.7 165.7 750.3 151.3 787.8 147.7C825.3 144 862.7 151 881.3 154.5L900 158L900 0L881.3 0C862.7 0 825.3 0 787.8 0C750.3 0 712.7 0 675.2 0C637.7 0 600.3 0 562.8 0C525.3 0 487.7 0 450.2 0C412.7 0 375.3 0 337.8 0C300.3 0 262.7 0 225.2 0C187.7 0 150.3 0 112.8 0C75.3 0 37.7 0 18.8 0L0 0Z" fill="#ca941a"></path><path d="M0 143L18.8 144.8C37.7 146.7 75.3 150.3 112.8 151.8C150.3 153.3 187.7 152.7 225.2 150C262.7 147.3 300.3 142.7 337.8 136C375.3 129.3 412.7 120.7 450.2 123.3C487.7 126 525.3 140 562.8 142.2C600.3 144.3 637.7 134.7 675.2 131.2C712.7 127.7 750.3 130.3 787.8 135.2C825.3 140 862.7 147 881.3 150.5L900 154L900 0L881.3 0C862.7 0 825.3 0 787.8 0C750.3 0 712.7 0 675.2 0C637.7 0 600.3 0 562.8 0C525.3 0 487.7 0 450.2 0C412.7 0 375.3 0 337.8 0C300.3 0 262.7 0 225.2 0C187.7 0 150.3 0 112.8 0C75.3 0 37.7 0 18.8 0L0 0Z" fill="#b98414"></path><path d="M0 63L18.8 66.8C37.7 70.7 75.3 78.3 112.8 78.7C150.3 79 187.7 72 225.2 75.3C262.7 78.7 300.3 92.3 337.8 94.3C375.3 96.3 412.7 86.7 450.2 85.2C487.7 83.7 525.3 90.3 562.8 88.5C600.3 86.7 637.7 76.3 675.2 72C712.7 67.7 750.3 69.3 787.8 72.7C825.3 76 862.7 81 881.3 83.5L900 86L900 0L881.3 0C862.7 0 825.3 0 787.8 0C750.3 0 712.7 0 675.2 0C637.7 0 600.3 0 562.8 0C525.3 0 487.7 0 450.2 0C412.7 0 375.3 0 337.8 0C300.3 0 262.7 0 225.2 0C187.7 0 150.3 0 112.8 0C75.3 0 37.7 0 18.8 0L0 0Z" fill="#a8740e"></path><path d="M0 50L18.8 49C37.7 48 75.3 46 112.8 42.3C150.3 38.7 187.7 33.3 225.2 31.5C262.7 29.7 300.3 31.3 337.8 35.3C375.3 39.3 412.7 45.7 450.2 45.8C487.7 46 525.3 40 562.8 37C600.3 34 637.7 34 675.2 37.7C712.7 41.3 750.3 48.7 787.8 48.3C825.3 48 862.7 40 881.3 36L900 32L900 0L881.3 0C862.7 0 825.3 0 787.8 0C750.3 0 712.7 0 675.2 0C637.7 0 600.3 0 562.8 0C525.3 0 487.7 0 450.2 0C412.7 0 375.3 0 337.8 0C300.3 0 262.7 0 225.2 0C187.7 0 150.3 0 112.8 0C75.3 0 37.7 0 18.8 0L0 0Z" fill="#976507"></path></svg>